<svg width="512" height="512" viewBox="0 0 512 512" fill="none" xmlns="http://www.w3.org/2000/svg">
<g clip-path="url(#clip0_419_9252)">
<path d="M34.3197 256.222C34.3197 386.626 130.773 494.544 256.221 512.444L256.221 478.124C386.625 478.124 494.543 381.671 512.443 256.222L478.123 256.222C478.123 125.818 381.669 17.9 256.221 -5.59991e-06L256.221 34.3208C125.817 34.3208 17.899 130.774 -0.00109681 256.222L34.3197 256.222Z" fill="#FF5900"/>
<path d="M180.709 369.709C180.709 369.709 189.86 376.572 256.134 376.572C322.408 376.572 376.134 322.846 376.134 256.572C376.134 233.091 369.39 211.185 357.732 192.686M237.278 313.14L180.709 369.709L237.278 426.278M331.558 143.435C331.558 143.435 322.408 136.572 256.134 136.572C189.86 136.572 136.134 190.298 136.134 256.572C136.134 280.053 142.878 301.959 154.535 320.458M274.99 200.003L331.558 143.435L274.99 86.8663" stroke="white" stroke-width="16" stroke-linecap="square"/>
</g>
<defs>
<clipPath id="clip0_419_9252">
<rect width="512" height="512" fill="white"/>
</clipPath>
</defs>
</svg>
